<?xml version="1.0" encoding="UTF-8" standalone="no"?>
<svg width="512px" height="512px" viewBox="0 0 512 512" version="1.1" xmlns="http://www.w3.org/2000/svg" xmlns:xlink="http://www.w3.org/1999/xlink">
    <!-- Generator: Sketch 40.3 (33839) - http://www.bohemiancoding.com/sketch -->
    <title>communications</title>
    <desc>Created with Sketch.</desc>
    <defs></defs>
    <g id="Page-1" stroke="none" stroke-width="1" fill="none" fill-rule="evenodd">
        <g id="communications">
            <polygon id="Shape" fill="#000000" points="512 155.83 417.701 250.129 512 344.439 323.391 344.439 323.391 289.28 220.991 158.071"></polygon>
            <polygon id="Shape" fill="#2E2E2E" points="323.391 158.071 323.391 289.28 22.733 289.28 22.733 45.511 323.391 45.511"></polygon>
            <g id="Group" fill="#6FC5D6">
                <polygon id="Shape" points="45.488 255.147 45.488 512 0 512 0 289.28"></polygon>
                <path d="M45.488,7.964 L45.488,79.644 L0,45.511 L0,7.964 C0,3.561 3.561,0 7.964,0 L37.523,0 C41.927,0 45.488,3.561 45.488,7.964 L45.488,7.964 Z" id="Shape"></path>
            </g>
            <rect id="Rectangle-path" fill="#000000" x="0" y="45.511" width="45.488" height="243.769"></rect>
        </g>
    </g>
</svg>