<?xml version="1.0" encoding="UTF-8" standalone="no"?>
<svg viewBox="0 0 286.91379 286.91379" xmlns="http://www.w3.org/2000/svg">
<path d="m484.49081,498.52267c0,76.07579-76.55786,137.7474-170.99676,137.7474s-170.99677-61.67161-170.99677-137.7474 76.55786-137.74739 170.99677-137.74739 170.99676,61.67161 170.99676,137.74739z" fill="#808080" transform="matrix(.83895,0,0,1.04145,-119.5474,-375.7291)"/>
<g transform="translate(-526.73993,-669.81318)">
<path d="m628.92795,746.1709h79.17908c2.23286,0 3.92085,2.69837 4.03043,6.04565 1.16099,35.46299 1.65408,52.01476-.67506,83.532-2.25693,30.54016-5.12251,44.62068-7.35537,44.62068h-71.17908c-2.23286,0-4.56162-18.01536-6.70549-44.62068-2.28331-28.33579-2.96093-49.96898-1.32494-83.532 .16305-3.34511 1.79757-6.04565 4.03043-6.04565z" fill="none" stroke="#fff" stroke-linecap="round" stroke-width="10"/>
<path d="m642.39423,769.0415h52.91826v53.52668h-52.91826z" fill="#fff"/>
<path d="m660,767.36218c0,2.76143-4.47715,5-10,5s-10-2.23857-10-5 4.47715-5 10-5 10,2.23858 10,5z" fill="#fff" transform="matrix(.5,0,0,1,322.64891,-7.35109)"/>
<path d="m698.2724,745.04172v-24.1826" fill="none" stroke="#fff" stroke-linecap="round" stroke-width="10"/>
</g>
</svg>
